<svg width="107" height="24" viewBox="0 0 107 24" fill="none" xmlns="http://www.w3.org/2000/svg"><path d="M62.727 18.267h2.596v-8.54h-2.596v8.54zm1.298-9.542c-.836 0-1.512-.675-1.512-1.47 0-.795.676-1.47 1.512-1.47s1.512.675 1.512 1.47c0 .795-.676 1.47-1.512 1.47z" fill="#EEE"/><path fill-rule="evenodd" clip-rule="evenodd" d="M37.804 10.073c0-2.49-1.867-3.907-4.57-3.907H29v12.102h2.668V13.98h1.565c2.704 0 4.571-1.435 4.571-3.907zm-4.518 1.608h-1.618V8.5h1.618c1.068 0 1.832.588 1.832 1.59 0 1.003-.764 1.59-1.832 1.59zm9.481 6.811c1.92 0 3.343-.864 4.073-2.264l-2.188-.848c-.41.64-.925 1.038-1.885 1.038-1.086 0-2.028-.726-2.117-1.73h6.456a4.29 4.29 0 0 0 .036-.621c0-2.68-1.832-4.564-4.482-4.564-2.597 0-4.553 1.919-4.553 4.495 0 2.645 1.92 4.494 4.66 4.494zm-.125-7.018c1.05 0 1.85.656 1.956 1.573h-3.93c.107-.813.943-1.573 1.974-1.573z" fill="#EEE"/><path d="M53.935 12.182c-.143-.069-.392-.103-.659-.103-1.44 0-2.294 1.037-2.294 2.714v3.475h-2.579v-8.54h2.561v1.4c.463-.986 1.388-1.59 2.526-1.59.196 0 .391.034.445.051v2.593zm3.939.588c-.48-.121-.729-.346-.729-.657 0-.346.338-.588.818-.588.534 0 1.12.415 1.388 1.055l2.116-1.09c-.551-1.192-1.974-1.987-3.486-1.987-2.01 0-3.397 1.14-3.397 2.766 0 1.348.854 2.247 2.508 2.627l1.031.242c.534.121.8.346.8.64 0 .415-.373.657-.924.657-.658 0-1.316-.45-1.637-1.158L54.264 16.4c.587 1.314 1.974 2.091 3.717 2.091 2.045 0 3.54-1.21 3.54-2.921 0-1.21-.89-2.11-2.544-2.524l-1.103-.277zm12.107 0c-.48-.121-.729-.346-.729-.657 0-.346.338-.588.818-.588.534 0 1.12.415 1.388 1.055l2.116-1.09c-.551-1.192-1.974-1.987-3.486-1.987-2.01 0-3.397 1.14-3.397 2.766 0 1.348.854 2.247 2.508 2.627l1.031.242c.534.121.8.346.8.64 0 .415-.373.657-.924.657-.658 0-1.316-.45-1.636-1.158l-2.1 1.124c.588 1.314 1.975 2.091 3.718 2.091 2.045 0 3.54-1.21 3.54-2.921 0-1.21-.89-2.11-2.544-2.524l-1.103-.277zm7.963-5.55v2.507h2.224v2.075h-2.224v3.129c0 .916.41 1.28 1.263 1.28.32 0 .676-.087.96-.26v2.178c-.39.19-.978.346-1.814.346-1.85 0-2.988-1.106-2.988-3.008v-3.665H74.12V9.727h1.245V7.221h2.58z" fill="#EEE"/><path fill-rule="evenodd" clip-rule="evenodd" d="M85.402 18.492c1.921 0 3.344-.864 4.073-2.264l-2.188-.848c-.409.64-.925 1.038-1.885 1.038-1.085 0-2.028-.726-2.117-1.73h6.457c.018-.103.035-.328.035-.621 0-2.68-1.832-4.564-4.482-4.564-2.596 0-4.553 1.919-4.553 4.495 0 2.645 1.92 4.494 4.66 4.494zm-.124-7.018c1.049 0 1.85.656 1.956 1.573h-3.93c.106-.813.942-1.573 1.974-1.573z" fill="#EEE"/><path d="M93.635 18.268H91.04v-8.54h2.596v1.088c.534-.83 1.423-1.313 2.597-1.313 2.01 0 3.237 1.33 3.237 3.492v5.273h-2.596v-4.686c0-1.123-.57-1.763-1.584-1.763-.996 0-1.654.726-1.654 1.92v4.529zm10.43-8.541V7.221h-2.579v2.506h-1.245v2.075h1.245v3.665c0 1.902 1.139 3.008 2.988 3.008.836 0 1.423-.156 1.814-.346v-2.178c-.284.173-.64.26-.96.26-.854 0-1.263-.364-1.263-1.28v-3.13h2.223V9.728h-2.223z" fill="#EEE"/><path fill-rule="evenodd" clip-rule="evenodd" d="M22.764 3.984a5.824 5.824 0 0 0-1.232-2.09 5.912 5.912 0 0 0-1.96-1.402 5.804 5.804 0 0 0-4.669-.003 5.886 5.886 0 0 0-3.147 3.414 5.802 5.802 0 0 0-.276 1.157c-.055.39-.055.802-.049 1.167l.021 2.248.035 4.496.012 2.248c.002.375-.002.75.003 1.124.003.186.01.378.008.56.002.18-.01.36-.014.541a7.508 7.508 0 0 1-.142 1.082 4.927 4.927 0 0 1-.35 1.044 5.606 5.606 0 0 1-1.298 1.792c-1.106.998-2.62 1.542-4.105 1.416a5.322 5.322 0 0 1-2.13-.606 5.366 5.366 0 0 1-1.701-1.426 6.077 6.077 0 0 1-.61-.936 5.343 5.343 0 0 1-.425-1.034 5.089 5.089 0 0 1-.171-2.195c.055-.362.14-.72.255-1.063a6.17 6.17 0 0 1 .44-.982c.17-.31.371-.598.59-.86.215-.267.455-.507.72-.712 1.035-.845 2.408-1.208 3.81-1.213 1.453.002 2.905.024 4.358.015l-.011-1.535c-1.446.03-2.893.129-4.339.235a7.547 7.547 0 0 0-2.35.569 6.635 6.635 0 0 0-1.069.57 6.116 6.116 0 0 0-1.708 1.647 6.151 6.151 0 0 0-.586 1.025 7.145 7.145 0 0 0-.637 2.267c-.08.799-.03 1.617.157 2.412a6.8 6.8 0 0 0 1.003 2.258 6.492 6.492 0 0 0 1.84 1.788 6.37 6.37 0 0 0 2.48.92c.11.02.22.03.33.042.11.012.221.024.337.027.115.006.23.01.344.008a6.176 6.176 0 0 0 1.704-.24 7.088 7.088 0 0 0 1.289-.503c.413-.21.801-.47 1.167-.76a7.08 7.08 0 0 0 2.055-2.819c.09-.218.165-.443.226-.67a9.03 9.03 0 0 0 .256-1.384c.018-.233.042-.465.049-.697l.012-.302.014-.28.054-1.125.195-8.992.005-.281.002-.068.002-.047.005-.094a3.946 3.946 0 0 1 .23-1.087 3.89 3.89 0 0 1 .774-1.252 3.62 3.62 0 0 1 1.197-.856 3.607 3.607 0 0 1 1.441-.298c.5-.008.996.087 1.457.282.46.194.887.488 1.239.858.349.373.631.812.812 1.296a3.84 3.84 0 0 1 .236 1.54 3.853 3.853 0 0 1-2.805 3.544 4.04 4.04 0 0 1-.805.15l-.103.006c-.038.001-.061.005-.113.006l-2.913.078-.038 1.766 2.95.039.3-.003a5.9 5.9 0 0 0 1.197-.161 5.716 5.716 0 0 0 2.183-1.043 5.85 5.85 0 0 0 1.567-1.86 6.036 6.036 0 0 0 .395-4.758z" fill="#FD5F07"/></svg>